<svg xmlns="http://www.w3.org/2000/svg" width="33" height="33" viewBox="0 0 33 33"><path d="M0,2.364A2.394,2.394,0,0,1,2.423,0H30.577A2.394,2.394,0,0,1,33,2.364V30.636A2.394,2.394,0,0,1,30.577,33H2.423A2.394,2.394,0,0,1,0,30.636ZM10.195,27.625v-14.9H5.243v14.9ZM7.72,10.688A2.582,2.582,0,1,0,7.753,5.54a2.581,2.581,0,1,0-.066,5.148ZM17.843,27.625V19.3a3.362,3.362,0,0,1,.165-1.209,2.709,2.709,0,0,1,2.541-1.811c1.792,0,2.508,1.365,2.508,3.37v7.972h4.952V19.078c0-4.579-2.442-6.707-5.7-6.707a4.921,4.921,0,0,0-4.465,2.461v.052H17.81l.033-.052V12.724h-4.95c.062,1.4,0,14.9,0,14.9Z"/></svg>